<?xml version="1.0" encoding="UTF-8"?>
<!DOCTYPE svg PUBLIC "-//W3C//DTD SVG 1.1//EN" "http://www.w3.org/Graphics/SVG/1.1/DTD/svg11.dtd">
<svg xmlns="http://www.w3.org/2000/svg" version="1.1" width="299px" height="307px" style="shape-rendering:geometricPrecision; text-rendering:geometricPrecision; image-rendering:optimizeQuality; fill-rule:evenodd; clip-rule:evenodd" xmlns:xlink="http://www.w3.org/1999/xlink">
<g><path style="opacity:1" fill="#229cec" d="M -0.5,-0.5 C 99.1667,-0.5 198.833,-0.5 298.5,-0.5C 298.5,101.833 298.5,204.167 298.5,306.5C 198.833,306.5 99.1667,306.5 -0.5,306.5C -0.5,204.167 -0.5,101.833 -0.5,-0.5 Z"/></g>
<g><path style="opacity:1" fill="#f2f3f3" d="M 102.5,32.5 C 114.146,31.3109 118.313,36.3109 115,47.5C 109.799,51.4698 104.632,51.4698 99.5,47.5C 96.3134,41.612 97.3134,36.612 102.5,32.5 Z"/></g>
<g><path style="opacity:1" fill="#fcfcfd" d="M 63.5,38.5 C 68.1667,38.5 72.8333,38.5 77.5,38.5C 78.8069,64.118 78.8069,89.7847 77.5,115.5C 77.5,115.833 77.5,116.167 77.5,116.5C 76.0687,117.78 75.4021,119.447 75.5,121.5C 73.5,125.5 70.5,128.5 66.5,130.5C 64.6203,130.229 63.287,130.896 62.5,132.5C 62.1667,132.5 61.8333,132.5 61.5,132.5C 58.8478,132.41 56.5145,133.076 54.5,134.5C 49.5,134.5 44.5,134.5 39.5,134.5C 37.4006,133.388 35.0673,132.721 32.5,132.5C 25.8242,132.922 23.3242,129.922 25,123.5C 25.6419,121.238 26.4752,119.071 27.5,117C 30.6812,116.403 33.6812,116.903 36.5,118.5C 36.9175,119.222 37.5842,119.722 38.5,120C 43.1667,120.667 47.8333,120.667 52.5,120C 53.4158,119.722 54.0825,119.222 54.5,118.5C 57.8616,117.138 60.1949,114.805 61.5,111.5C 62.2679,110.737 62.7679,109.737 63,108.5C 63.5,85.169 63.6666,61.8357 63.5,38.5 Z"/></g>
<g><path style="opacity:1" fill="#bbbbbc" d="M 63.5,38.5 C 63.6666,61.8357 63.5,85.169 63,108.5C 62.7679,109.737 62.2679,110.737 61.5,111.5C 62.1283,87.0198 62.7949,62.6865 63.5,38.5 Z"/></g>
<g><path style="opacity:1" fill="#babbbc" d="M 77.5,38.5 C 78.8324,50.4814 79.4991,62.8148 79.5,75.5C 79.3333,87.8333 79.1667,100.167 79,112.5C 78.7679,113.737 78.2679,114.737 77.5,115.5C 78.8069,89.7847 78.8069,64.118 77.5,38.5 Z"/></g>
<g><path style="opacity:1" fill="#fafafa" d="M 221.5,60.5 C 223.599,61.6118 225.933,62.2785 228.5,62.5C 232.598,63.2719 235.931,65.2719 238.5,68.5C 238.684,71.1731 239.851,71.8398 242,70.5C 242.497,67.854 242.664,65.1873 242.5,62.5C 247.5,62.5 252.5,62.5 257.5,62.5C 257.5,85.8333 257.5,109.167 257.5,132.5C 252.833,132.5 248.167,132.5 243.5,132.5C 242.772,129.921 242.272,127.254 242,124.5C 240.539,123.117 239.706,123.451 239.5,125.5C 230.984,134.125 220.651,136.958 208.5,134C 196.569,129.913 189.569,121.746 187.5,109.5C 186.659,102.535 186.326,95.5352 186.5,88.5C 187.246,82.3537 189.579,77.0203 193.5,72.5C 195.833,70.8333 197.833,68.8333 199.5,66.5C 205.735,61.1187 213.068,59.1187 221.5,60.5 Z"/></g>
<g><path style="opacity:1" fill="#bdbfc0" d="M 221.5,60.5 C 224.228,60.1706 226.562,60.8372 228.5,62.5C 225.933,62.2785 223.599,61.6118 221.5,60.5 Z"/></g>
<g><path style="opacity:1" fill="#fbfbfb" d="M 168.5,76.5 C 168.167,76.5 167.833,76.5 167.5,76.5C 165.62,76.2291 164.287,76.8958 163.5,78.5C 157.599,82.2507 153.766,87.584 152,94.5C 151.5,107.162 151.333,119.829 151.5,132.5C 146.167,132.5 140.833,132.5 135.5,132.5C 135.5,109.167 135.5,85.8333 135.5,62.5C 140.5,62.5 145.5,62.5 150.5,62.5C 150.335,65.5184 150.502,68.5184 151,71.5C 152.461,72.8825 153.294,72.5492 153.5,70.5C 156.797,66.2129 161.131,63.5462 166.5,62.5C 170.452,61.7279 174.452,61.3946 178.5,61.5C 178.5,66.1667 178.5,70.8333 178.5,75.5C 174.958,75.1872 171.625,75.5206 168.5,76.5 Z"/></g>
<g><path style="opacity:1" fill="#cbcdce" d="M 168.5,76.5 C 171.625,75.5206 174.958,75.1872 178.5,75.5C 178.5,70.8333 178.5,66.1667 178.5,61.5C 174.452,61.3946 170.452,61.7279 166.5,62.5C 166.918,61.7784 167.584,61.2784 168.5,61C 172.152,60.5014 175.818,60.3347 179.5,60.5C 179.5,65.8333 179.5,71.1667 179.5,76.5C 175.833,76.5 172.167,76.5 168.5,76.5 Z"/></g>
<g><path style="opacity:1" fill="#fefefe" d="M 113.5,62.5 C 114.833,85.8333 114.833,109.167 113.5,132.5C 108.833,132.5 104.167,132.5 99.5,132.5C 99.5,109.167 99.5,85.8333 99.5,62.5C 104.167,62.5 108.833,62.5 113.5,62.5 Z"/></g>
<g><path style="opacity:1" fill="#bbbbbb" d="M 113.5,62.5 C 114.832,73.8137 115.499,85.4803 115.5,97.5C 115.499,109.52 114.832,121.186 113.5,132.5C 114.833,109.167 114.833,85.8333 113.5,62.5 Z"/></g>
<g><path style="opacity:1" fill="#bfc0c1" d="M 150.5,62.5 C 150.902,65.4766 151.902,68.1433 153.5,70.5C 153.294,72.5492 152.461,72.8825 151,71.5C 150.502,68.5184 150.335,65.5184 150.5,62.5 Z"/></g>
<g><path style="opacity:1" fill="#c9c9c9" d="M 242.5,62.5 C 242.664,65.1873 242.497,67.854 242,70.5C 239.851,71.8398 238.684,71.1731 238.5,68.5C 239.15,68.8039 239.817,69.1373 240.5,69.5C 241.168,67.0312 241.835,64.6979 242.5,62.5 Z"/></g>
<g><path style="opacity:1" fill="#c0c5c8" d="M 199.5,66.5 C 197.833,68.8333 195.833,70.8333 193.5,72.5C 194.5,69.5 196.5,67.5 199.5,66.5 Z"/></g>
<g><path style="opacity:1" fill="#239cec" d="M 231.5,76.5 C 233.167,78.8333 235.167,80.8333 237.5,82.5C 240.968,89.0004 242.301,96.0004 241.5,103.5C 240.069,104.78 239.402,106.447 239.5,108.5C 234.876,118.146 227.209,121.979 216.5,120C 209.124,116.717 204.457,111.217 202.5,103.5C 202.337,98.453 202.671,93.453 203.5,88.5C 209.011,75.7472 218.345,71.7472 231.5,76.5 Z"/></g>
<g><path style="opacity:1" fill="#b1bec9" d="M 231.5,76.5 C 234.5,77.5 236.5,79.5 237.5,82.5C 235.167,80.8333 233.167,78.8333 231.5,76.5 Z"/></g>
<g><path style="opacity:1" fill="#93adc2" d="M 167.5,76.5 C 166.486,77.6737 165.153,78.3404 163.5,78.5C 164.287,76.8958 165.62,76.2291 167.5,76.5 Z"/></g>
<g><path style="opacity:1" fill="#b6b7b7" d="M 203.5,88.5 C 202.671,93.453 202.337,98.453 202.5,103.5C 201.353,99.3537 201.186,95.0204 202,90.5C 202.278,89.5842 202.778,88.9175 203.5,88.5 Z"/></g>
<g><path style="opacity:1" fill="#c7c7c7" d="M 186.5,88.5 C 186.326,95.5352 186.659,102.535 187.5,109.5C 185.945,105.797 185.278,101.797 185.5,97.5C 185.502,94.3138 185.835,91.3138 186.5,88.5 Z"/></g>
<g><path style="opacity:1" fill="#abb2b7" d="M 241.5,103.5 C 241.598,105.553 240.931,107.22 239.5,108.5C 239.402,106.447 240.069,104.78 241.5,103.5 Z"/></g>
<g><path style="opacity:1" fill="#b5b8ba" d="M 36.5,118.5 C 42.492,119.774 48.492,119.774 54.5,118.5C 54.0825,119.222 53.4158,119.722 52.5,120C 47.8333,120.667 43.1667,120.667 38.5,120C 37.5842,119.722 36.9175,119.222 36.5,118.5 Z"/></g>
<g><path style="opacity:1" fill="#acb9c2" d="M 77.5,116.5 C 77.5979,118.553 76.9313,120.22 75.5,121.5C 75.4021,119.447 76.0687,117.78 77.5,116.5 Z"/></g>
<g><path style="opacity:1" fill="#c2c2c3" d="M 243.5,132.5 C 242.167,130.167 240.833,127.833 239.5,125.5C 239.706,123.451 240.539,123.117 242,124.5C 242.272,127.254 242.772,129.921 243.5,132.5 Z"/></g>
<g><path style="opacity:1" fill="#adb7be" d="M 66.5,130.5 C 65.4863,131.674 64.153,132.34 62.5,132.5C 63.287,130.896 64.6203,130.229 66.5,130.5 Z"/></g>
<g><path style="opacity:1" fill="#b2b9be" d="M 61.5,132.5 C 59.4855,133.924 57.1522,134.59 54.5,134.5C 56.5145,133.076 58.8478,132.41 61.5,132.5 Z"/></g>
<g><path style="opacity:1" fill="#b1b6b9" d="M 32.5,132.5 C 35.0673,132.721 37.4006,133.388 39.5,134.5C 36.7718,134.829 34.4385,134.163 32.5,132.5 Z"/></g>
<g><path style="opacity:1" fill="#fbfbfb" d="M 253.5,178.5 C 258.833,178.5 264.167,178.5 269.5,178.5C 269.5,211.167 269.5,243.833 269.5,276.5C 264.167,276.5 258.833,276.5 253.5,276.5C 253.5,243.833 253.5,211.167 253.5,178.5 Z"/></g>
<g><path style="opacity:1" fill="#fcfcfc" d="M 38.5,187.5 C 38.5,193.833 38.5,200.167 38.5,206.5C 46.1667,206.5 53.8333,206.5 61.5,206.5C 61.8333,206.5 62.1667,206.5 62.5,206.5C 62.5,210.5 62.5,214.5 62.5,218.5C 54.8261,218.334 47.1594,218.5 39.5,219C 39,219.5 38.5,220 38,220.5C 37.3333,232.5 37.3333,244.5 38,256.5C 38.2321,257.737 38.7321,258.737 39.5,259.5C 40.6741,261.441 42.3408,262.941 44.5,264C 48.8206,264.499 53.1539,264.666 57.5,264.5C 59.5,264.167 61.5,263.833 63.5,263.5C 63.5,267.5 63.5,271.5 63.5,275.5C 62.791,276.404 61.791,276.737 60.5,276.5C 58.2143,276.595 56.2143,277.262 54.5,278.5C 49.8333,278.5 45.1667,278.5 40.5,278.5C 39.2196,277.069 37.5529,276.402 35.5,276.5C 33.847,276.34 32.5137,275.674 31.5,274.5C 30.5,272.833 29.1667,271.5 27.5,270.5C 26.0937,270.027 25.427,269.027 25.5,267.5C 25.3404,265.847 24.6737,264.514 23.5,263.5C 23.5,262.833 23.5,262.167 23.5,261.5C 23.6666,247.829 23.4999,234.163 23,220.5C 22.5,220 22,219.5 21.5,219C 17.5138,218.501 13.5138,218.334 9.5,218.5C 9.5,214.5 9.5,210.5 9.5,206.5C 13.8333,206.5 18.1667,206.5 22.5,206.5C 22.3337,199.825 22.5004,193.158 23,186.5C 27.7477,185.365 32.581,185.198 37.5,186C 38.056,186.383 38.3893,186.883 38.5,187.5 Z"/></g>
<g><path style="opacity:1" fill="#f8f9f9" d="M 149.5,245.5 C 148.469,247.961 147.802,250.627 147.5,253.5C 145.173,263.164 139.507,270.164 130.5,274.5C 128.62,274.229 127.287,274.896 126.5,276.5C 125.833,276.5 125.167,276.5 124.5,276.5C 121.933,276.721 119.599,277.388 117.5,278.5C 103.073,280.472 91.0727,276.139 81.5,265.5C 81.573,263.973 80.9063,262.973 79.5,262.5C 77.0849,259.66 75.7516,256.327 75.5,252.5C 74.1667,244.833 74.1667,237.167 75.5,229.5C 76.0421,226.088 77.3754,223.088 79.5,220.5C 81.5869,219.415 82.9202,217.749 83.5,215.5C 88.3512,210.234 94.3512,206.734 101.5,205C 125.035,200.508 140.868,209.342 149,231.5C 149.499,236.155 149.666,240.821 149.5,245.5 Z"/></g>
<g><path style="opacity:1" fill="#f8f9f9" d="M 237.5,245.5 C 236.469,247.961 235.802,250.627 235.5,253.5C 233.173,263.164 227.507,270.164 218.5,274.5C 216.62,274.229 215.287,274.896 214.5,276.5C 213.833,276.5 213.167,276.5 212.5,276.5C 209.933,276.721 207.599,277.388 205.5,278.5C 191.073,280.472 179.073,276.139 169.5,265.5C 169.573,263.973 168.906,262.973 167.5,262.5C 165.085,259.66 163.752,256.327 163.5,252.5C 162.167,244.833 162.167,237.167 163.5,229.5C 164.042,226.088 165.375,223.088 167.5,220.5C 169.587,219.415 170.92,217.749 171.5,215.5C 176.351,210.234 182.351,206.734 189.5,205C 213.035,200.508 228.868,209.342 237,231.5C 237.499,236.155 237.666,240.821 237.5,245.5 Z"/></g>
<g><path style="opacity:1" fill="#7db0d2" d="M 38.5,187.5 C 39.4896,193.31 39.8229,199.31 39.5,205.5C 47.0191,205.175 54.3524,205.508 61.5,206.5C 53.8333,206.5 46.1667,206.5 38.5,206.5C 38.5,200.167 38.5,193.833 38.5,187.5 Z"/></g>
<g><path style="opacity:1" fill="#bac2c8" d="M 83.5,215.5 C 82.9202,217.749 81.5869,219.415 79.5,220.5C 80.0798,218.251 81.4131,216.585 83.5,215.5 Z"/></g>
<g><path style="opacity:1" fill="#239cec" d="M 105.5,218.5 C 121.774,216.789 131.107,223.956 133.5,240C 132.586,258.581 122.919,266.581 104.5,264C 97.944,261.611 93.6106,257.111 91.5,250.5C 90.1667,244.5 90.1667,238.5 91.5,232.5C 93.7629,227.574 97.0963,223.574 101.5,220.5C 103.153,220.34 104.486,219.674 105.5,218.5 Z"/></g>
<g><path style="opacity:1" fill="#bac2c8" d="M 171.5,215.5 C 170.92,217.749 169.587,219.415 167.5,220.5C 168.08,218.251 169.413,216.585 171.5,215.5 Z"/></g>
<g><path style="opacity:1" fill="#239cec" d="M 193.5,218.5 C 209.774,216.789 219.107,223.956 221.5,240C 220.586,258.581 210.919,266.581 192.5,264C 185.944,261.611 181.611,257.111 179.5,250.5C 178.167,244.5 178.167,238.5 179.5,232.5C 181.763,227.574 185.096,223.574 189.5,220.5C 191.153,220.34 192.486,219.674 193.5,218.5 Z"/></g>
<g><path style="opacity:1" fill="#a5b5c1" d="M 105.5,218.5 C 104.486,219.674 103.153,220.34 101.5,220.5C 102.287,218.896 103.62,218.229 105.5,218.5 Z"/></g>
<g><path style="opacity:1" fill="#a5b5c1" d="M 193.5,218.5 C 192.486,219.674 191.153,220.34 189.5,220.5C 190.287,218.896 191.62,218.229 193.5,218.5 Z"/></g>
<g><path style="opacity:1" fill="#b6babc" d="M 9.5,206.5 C 9.5,210.5 9.5,214.5 9.5,218.5C 13.5138,218.334 17.5138,218.501 21.5,219C 22,219.5 22.5,220 23,220.5C 23.4999,234.163 23.6666,247.829 23.5,261.5C 22.669,248.34 22.169,235.006 22,221.5C 17.92,220.7 13.7533,220.2 9.5,220C 9,219.5 8.5,219 8,218.5C 7.33333,214.833 7.33333,211.167 8,207.5C 8.38258,206.944 8.88258,206.611 9.5,206.5 Z"/></g>
<g><path style="opacity:1" fill="#c5c7c8" d="M 75.5,229.5 C 74.1667,237.167 74.1667,244.833 75.5,252.5C 74.7784,252.082 74.2784,251.416 74,250.5C 73.8333,247.5 73.6667,244.5 73.5,241.5C 73.2783,237.203 73.945,233.203 75.5,229.5 Z"/></g>
<g><path style="opacity:1" fill="#c5c7c8" d="M 163.5,229.5 C 162.167,237.167 162.167,244.833 163.5,252.5C 162.778,252.082 162.278,251.416 162,250.5C 161.833,247.5 161.667,244.5 161.5,241.5C 161.278,237.203 161.945,233.203 163.5,229.5 Z"/></g>
<g><path style="opacity:1" fill="#aeb5b9" d="M 91.5,232.5 C 90.1667,238.5 90.1667,244.5 91.5,250.5C 90.7784,250.082 90.2784,249.416 90,248.5C 89.3333,243.833 89.3333,239.167 90,234.5C 90.2784,233.584 90.7784,232.918 91.5,232.5 Z"/></g>
<g><path style="opacity:1" fill="#aeb5b9" d="M 179.5,232.5 C 178.167,238.5 178.167,244.5 179.5,250.5C 178.778,250.082 178.278,249.416 178,248.5C 177.333,243.833 177.333,239.167 178,234.5C 178.278,233.584 178.778,232.918 179.5,232.5 Z"/></g>
<g><path style="opacity:1" fill="#bec1c2" d="M 62.5,206.5 C 63.8229,210.9 63.8229,215.4 62.5,220C 54.5876,220.183 46.7543,220.683 39,221.5C 38.2461,234.193 38.4128,246.859 39.5,259.5C 38.7321,258.737 38.2321,257.737 38,256.5C 37.3333,244.5 37.3333,232.5 38,220.5C 38.5,220 39,219.5 39.5,219C 47.1594,218.5 54.8261,218.334 62.5,218.5C 62.5,214.5 62.5,210.5 62.5,206.5 Z"/></g>
<g><path style="opacity:1" fill="#bdbfc0" d="M 149.5,245.5 C 149.889,248.553 149.223,251.22 147.5,253.5C 147.802,250.627 148.469,247.961 149.5,245.5 Z"/></g>
<g><path style="opacity:1" fill="#bdbfc0" d="M 237.5,245.5 C 237.889,248.553 237.223,251.22 235.5,253.5C 235.802,250.627 236.469,247.961 237.5,245.5 Z"/></g>
<g><path style="opacity:1" fill="#a4b8c6" d="M 79.5,262.5 C 80.9063,262.973 81.573,263.973 81.5,265.5C 80.0937,265.027 79.427,264.027 79.5,262.5 Z"/></g>
<g><path style="opacity:1" fill="#a4b8c6" d="M 167.5,262.5 C 168.906,262.973 169.573,263.973 169.5,265.5C 168.094,265.027 167.427,264.027 167.5,262.5 Z"/></g>
<g><path style="opacity:1" fill="#bbbcbd" d="M 63.5,275.5 C 63.5,271.5 63.5,267.5 63.5,263.5C 61.5,263.833 59.5,264.167 57.5,264.5C 59.4385,262.837 61.7718,262.171 64.5,262.5C 64.8182,267.032 64.4849,271.366 63.5,275.5 Z"/></g>
<g><path style="opacity:1" fill="#afb3b7" d="M 23.5,263.5 C 24.6737,264.514 25.3404,265.847 25.5,267.5C 23.8958,266.713 23.2291,265.38 23.5,263.5 Z"/></g>
<g><path style="opacity:1" fill="#a5b8c7" d="M 27.5,270.5 C 29.1667,271.5 30.5,272.833 31.5,274.5C 29.1667,274.167 27.8333,272.833 27.5,270.5 Z"/></g>
<g><path style="opacity:1" fill="#a8b7c1" d="M 130.5,274.5 C 129.486,275.674 128.153,276.34 126.5,276.5C 127.287,274.896 128.62,274.229 130.5,274.5 Z"/></g>
<g><path style="opacity:1" fill="#a8b7c1" d="M 218.5,274.5 C 217.486,275.674 216.153,276.34 214.5,276.5C 215.287,274.896 216.62,274.229 218.5,274.5 Z"/></g>
<g><path style="opacity:1" fill="#adb5bc" d="M 35.5,276.5 C 37.5529,276.402 39.2196,277.069 40.5,278.5C 38.4471,278.598 36.7804,277.931 35.5,276.5 Z"/></g>
<g><path style="opacity:1" fill="#b0b7bc" d="M 60.5,276.5 C 58.8984,278.074 56.8984,278.741 54.5,278.5C 56.2143,277.262 58.2143,276.595 60.5,276.5 Z"/></g>
<g><path style="opacity:1" fill="#babdbf" d="M 124.5,276.5 C 122.562,278.163 120.228,278.829 117.5,278.5C 119.599,277.388 121.933,276.721 124.5,276.5 Z"/></g>
<g><path style="opacity:1" fill="#babdbf" d="M 212.5,276.5 C 210.562,278.163 208.228,278.829 205.5,278.5C 207.599,277.388 209.933,276.721 212.5,276.5 Z"/></g>
</svg>
